<svg version="1.1" id="Layer_1" xmlns="http://www.w3.org/2000/svg" xmlns:xlink="http://www.w3.org/1999/xlink" x="0px" y="0px"
	 width="100%" viewBox="0 0 2000 611" enable-background="new 0 0 2000 611" xml:space="preserve">
<path fill="#4C6971" opacity="1.000000" stroke="none" 
	d="
M424.819672,1.418468 
	C948.769592,1.000000 1472.539185,1.006617 1996.308838,0.882423 
	C2000.486816,0.881432 2001.105225,1.875410 2001.102905,5.807726 
	C2000.985840,206.283264 2000.984741,406.758881 2001.108765,607.234436 
	C2001.111328,611.255066 2000.355103,612.113342 1996.266724,612.112305 
	C1533.823608,611.992981 1071.380493,612.000000 608.468628,612.000000 
	C607.173340,610.338989 608.285583,609.205383 609.031555,607.913269 
	C614.162964,599.024109 610.293762,591.882080 600.024475,591.518616 
	C592.198975,591.241577 584.362305,591.473083 576.530762,591.425964 
	C564.907898,591.356140 564.591492,591.074585 564.579407,579.235718 
	C564.542664,543.409546 564.566284,507.583374 564.565552,471.757202 
	C564.563721,382.275116 564.565918,292.793030 564.562317,203.310959 
	C564.562195,200.478592 564.595642,197.645920 564.474182,194.814102 
	C564.294312,190.621338 562.421082,187.561386 558.632874,185.625610 
	C552.845947,182.668503 547.025879,179.778610 541.209290,176.881622 
	C512.575378,162.620422 484.288513,147.675598 455.618286,133.483109 
	C448.908661,130.161682 442.522827,126.125343 435.644958,123.169724 
	C430.216431,120.836914 428.458801,117.166916 428.507904,111.480957 
	C428.670471,92.653435 428.582031,73.822655 428.565826,54.993134 
	C428.561218,49.660870 428.756073,44.320374 428.526764,38.997986 
	C427.989929,26.537487 430.851593,13.705349 424.819672,1.418468 
z"/>
<path fill="#FFFFFF" opacity="1.000000" stroke="none" 
	d="
M424.531342,1.000000 
	C429.899628,5.055632 431.140381,10.293227 431.098999,16.528772 
	C430.885620,48.687016 431.080109,80.847893 430.896667,113.006508 
	C430.874176,116.944969 432.199036,118.685555 435.635345,120.392075 
	C459.326508,132.157379 483.012360,143.947311 506.437134,156.230545 
	C524.940735,165.933304 543.475281,175.536652 562.465210,184.258728 
	C565.540222,185.671066 566.525635,188.839569 566.959351,192.005951 
	C567.161011,193.478287 566.999695,195.000610 566.999756,196.500275 
	C567.000000,325.305542 567.032593,454.110840 566.877686,582.915955 
	C566.871704,587.924316 567.990723,589.372742 573.072998,589.132202 
	C582.715881,588.675720 592.395874,588.977722 602.060364,589.008850 
	C607.454773,589.026245 612.889160,592.706665 613.920715,596.945129 
	C615.483826,603.367371 613.663208,607.977295 608.118652,611.667969 
	C408.312439,612.000000 208.624878,612.000000 8.468657,612.000000 
	C2.715806,610.903015 1.431587,607.103943 1.498710,602.385986 
	C1.512927,601.386780 1.467411,600.385864 1.506513,599.387817 
	C1.837057,590.951172 5.239190,587.323486 13.652746,586.720276 
	C18.804045,586.350952 23.977022,586.577942 29.140213,586.569885 
	C42.560440,586.548950 42.563778,586.559387 42.564121,572.880615 
	C42.565750,508.082428 42.564606,443.284210 42.564873,378.486023 
	C42.565117,319.518005 42.563442,260.549957 42.567047,201.581940 
	C42.567230,198.583725 42.586456,195.585922 42.645267,192.587646 
	C42.747684,187.366180 45.312431,183.821228 49.926979,181.602890 
	C82.354568,166.014130 114.030876,148.936050 146.265015,132.959641 
	C154.609924,128.823608 162.726334,124.175690 171.167114,120.226311 
	C176.575256,117.695877 178.665344,113.961128 178.635422,108.049576 
	C178.484482,78.233292 178.554688,48.415653 178.569427,18.598495 
	C178.570740,15.933682 178.482391,13.262718 178.722183,10.606693 
	C179.148041,5.889768 180.956497,2.249719 186.601074,1.221177 
	C266.020905,1.000000 345.041779,1.000000 424.531342,1.000000 
z"/>
<path fill="#4C6971" opacity="1.000000" stroke="none" 
	d="
M186.531342,1.000000 
	C182.612579,4.016546 180.911743,8.125293 180.933121,13.490485 
	C181.065933,46.806168 180.961594,80.122757 181.062637,113.438667 
	C181.072174,116.578506 180.430054,118.488670 177.348007,120.022003 
	C150.748978,133.255142 124.122643,146.444000 97.762123,160.141953 
	C81.838837,168.416290 65.983337,176.785370 49.651596,184.242126 
	C46.971283,185.465912 45.079987,188.026703 45.008003,191.355347 
	C44.979198,192.687393 45.000149,194.020554 45.000145,195.353195 
	C44.999981,324.620117 44.970608,453.887054 45.115932,583.153809 
	C45.121304,587.931885 44.088905,589.394104 39.191750,589.125366 
	C30.887714,588.669617 22.537876,588.867981 14.212142,589.034363 
	C3.886830,589.240540 -1.211583,598.829895 3.840807,607.833313 
	C4.868526,609.664734 6.815776,609.806580 7.896842,611.659912 
	C0.999997,612.000000 1.000001,612.000000 1.000001,605.007629 
	C0.999992,405.116486 1.008973,205.225372 0.923770,5.334275 
	C0.922336,1.971248 1.313193,0.871505 5.161458,0.882227 
	C65.461510,1.050242 125.762169,1.000000 186.531342,1.000000 
z"/>
<path fill="#FFFFFF" opacity="1.000000" stroke="none" 
	d="
M1198.371338,76.253525 
	C1189.585083,81.832794 1182.971313,89.146545 1176.705933,96.835602 
	C1175.480347,98.339485 1176.033813,100.023247 1176.031982,101.609169 
	C1175.990356,137.264389 1175.929443,172.919983 1176.094482,208.574493 
	C1176.113892,212.752594 1175.405518,214.214066 1170.772949,214.131790 
	C1152.617798,213.809357 1134.452393,213.898514 1116.293457,214.086716 
	C1112.731567,214.123611 1111.914551,213.097443 1111.922607,209.641953 
	C1112.036377,160.491272 1112.024902,111.340187 1111.941284,62.189377 
	C1111.936035,59.109516 1112.498535,57.882584 1115.962280,57.915768 
	C1134.621216,58.094524 1153.283569,58.081360 1171.942871,57.924500 
	C1175.243530,57.896755 1176.223755,58.845573 1176.069580,62.097408 
	C1175.813110,67.505264 1175.999756,72.934143 1175.999756,79.122932 
	C1184.290649,71.919373 1192.004395,65.430305 1201.345459,61.244980 
	C1214.084961,55.536987 1227.216919,53.924183 1241.100342,55.778065 
	C1249.192505,56.858608 1256.773682,58.725304 1263.593872,63.144997 
	C1270.852905,67.849213 1275.704468,74.411858 1278.551758,82.961136 
	C1286.318237,74.613358 1294.904785,67.440575 1305.020020,62.575867 
	C1325.053833,52.941067 1345.612915,51.707260 1366.052124,61.119453 
	C1377.576782,66.426529 1383.486206,76.444893 1386.007080,88.624725 
	C1387.822266,97.394646 1388.059448,106.261284 1388.034302,115.183182 
	C1387.946045,146.506256 1387.929688,177.830093 1388.089722,209.152588 
	C1388.109497,213.029602 1387.168457,214.148376 1383.195557,214.099030 
	C1365.037476,213.873489 1346.873047,213.854095 1328.715820,214.110199 
	C1324.566162,214.168732 1323.915161,212.762634 1323.924927,209.063828 
	C1324.041382,165.078201 1323.940063,121.091942 1324.098633,77.106575 
	C1324.113525,73.002815 1323.201782,71.731483 1318.962036,71.884789 
	C1311.133179,72.167847 1305.074097,75.994087 1299.118896,80.369469 
	C1292.814697,85.001198 1287.558716,90.668182 1282.734131,96.770645 
	C1282.168945,97.485596 1281.590576,97.955215 1281.597900,99.221786 
	C1281.810913,135.852600 1281.840332,172.484543 1282.081909,209.115082 
	C1282.107056,212.916168 1281.284424,214.158066 1277.232910,214.104477 
	C1259.075195,213.864365 1240.910645,213.861496 1222.753052,214.106064 
	C1218.674683,214.161026 1217.908691,212.872513 1217.919556,209.101227 
	C1218.045288,165.115631 1217.942627,121.129379 1218.095703,77.143974 
	C1218.109741,73.094864 1217.288940,71.727890 1212.996460,71.860756 
	C1207.742310,72.023392 1203.103271,73.437706 1198.371338,76.253525 
z"/>
<path fill="#FFFFFF" opacity="1.000000" stroke="none" 
	d="
M1434.000000,108.000000 
	C1434.000000,92.504471 1434.147095,77.506508 1433.899048,62.515083 
	C1433.835327,58.654888 1435.002930,57.870525 1438.638062,57.913479 
	C1455.297485,58.110359 1471.961304,58.093838 1488.621582,57.938644 
	C1493.184814,57.896133 1497.035034,57.850315 1494.331665,64.997368 
	C1501.907471,61.702751 1508.438965,58.542622 1515.544678,57.017681 
	C1531.092529,53.681034 1546.385010,54.693554 1561.722046,58.833759 
	C1583.371460,64.677933 1599.282104,77.520775 1609.508667,97.208702 
	C1614.584229,106.980453 1616.724121,117.619400 1617.177979,128.805023 
	C1617.700317,141.684540 1616.832886,154.206818 1611.979980,166.163437 
	C1602.281006,190.060471 1585.151489,205.824326 1560.184448,213.056305 
	C1548.046631,216.572189 1535.670410,216.533752 1523.366333,215.808975 
	C1513.818970,215.246597 1504.550293,212.375839 1495.901733,207.992645 
	C1494.388306,209.327042 1495.040771,210.913483 1495.035400,212.270981 
	C1494.978516,226.599808 1494.828979,240.932297 1495.108032,255.255920 
	C1495.187988,259.356781 1493.847656,260.124908 1490.090576,260.082947 
	C1473.097778,259.893127 1456.099609,259.856140 1439.108154,260.103668 
	C1434.987915,260.163696 1433.882935,259.165619 1433.896851,254.956131 
	C1434.058105,206.137848 1434.000000,157.318817 1434.000000,108.000000 
z"/>
<path fill="#FFFFFF" opacity="1.000000" stroke="none" 
	d="
M1314.000000,375.000000 
	C1314.000000,346.004272 1314.100342,317.507782 1313.891846,289.013580 
	C1313.860718,284.751129 1315.068237,283.847137 1319.140259,283.899200 
	C1337.301147,284.131348 1355.467651,284.091339 1373.630005,283.919586 
	C1377.073608,283.886993 1378.283447,284.692200 1378.083008,288.287262 
	C1377.769409,293.912354 1377.999756,299.567780 1377.999756,305.787598 
	C1384.753662,301.026581 1390.141113,295.389313 1396.898804,291.405884 
	C1411.399658,282.858063 1426.602905,279.430878 1443.398438,281.808044 
	C1451.602051,282.969116 1459.469604,284.469727 1466.457764,289.009247 
	C1477.248901,296.019165 1482.141357,306.586151 1483.996460,318.881927 
	C1486.115845,332.929840 1484.797363,347.066559 1484.933105,361.158051 
	C1485.172241,385.985382 1484.929688,410.817108 1485.080444,435.645813 
	C1485.101440,439.111481 1484.256226,440.123657 1480.700928,440.086487 
	C1462.705566,439.898254 1444.705078,439.851929 1426.711426,440.110870 
	C1422.551270,440.170685 1421.915649,438.747559 1421.925659,435.057892 
	C1422.041870,392.064667 1422.000122,349.070953 1421.999634,306.077393 
	C1421.999634,299.883179 1417.837402,296.799469 1411.567139,298.175415 
	C1405.014648,299.613251 1399.776001,303.469421 1394.377930,307.101562 
	C1388.954468,310.750702 1384.959595,315.785004 1380.851196,320.711487 
	C1378.819580,323.147614 1377.905518,325.861603 1377.918091,329.229645 
	C1378.050537,364.557220 1377.928711,399.885773 1378.098267,435.213043 
	C1378.117432,439.218170 1376.979004,440.131989 1373.133789,440.089478 
	C1354.972046,439.888672 1336.805664,439.898590 1318.643677,440.085602 
	C1315.017822,440.122925 1313.857910,439.356232 1313.899658,435.489929 
	C1314.115723,415.495270 1314.000122,395.497009 1314.000000,375.000000 
z"/>
<path fill="#FFFFFF" opacity="1.000000" stroke="none" 
	d="
M1109.017334,284.000000 
	C1124.844482,284.000061 1140.177734,284.148590 1155.504395,283.897034 
	C1159.401245,283.833099 1160.265747,285.046295 1160.080078,288.661743 
	C1159.781494,294.476196 1160.000000,300.317261 1160.000000,307.472076 
	C1164.852661,302.544800 1169.180786,298.452332 1174.020508,294.989319 
	C1188.086792,284.924530 1203.687378,279.785919 1221.019165,281.071350 
	C1233.854858,282.023254 1246.404297,284.492157 1255.795898,294.394958 
	C1262.762085,301.740326 1266.306274,310.901001 1266.929810,320.877960 
	C1269.298828,358.776154 1267.360596,396.727844 1268.098999,434.647858 
	C1268.183716,439.003601 1267.163574,440.193573 1262.696777,440.120361 
	C1244.871216,439.828339 1227.034302,439.801666 1209.210205,440.134247 
	C1204.538330,440.221436 1203.895142,438.695709 1203.909424,434.555847 
	C1204.056519,391.563446 1204.000610,348.570404 1203.999512,305.577515 
	C1203.999390,299.412659 1200.422974,296.699799 1194.291626,298.333160 
	C1182.022949,301.601440 1173.257568,309.769104 1164.918579,318.819672 
	C1160.432495,323.688538 1159.882080,328.999390 1159.914917,335.117310 
	C1160.093872,368.444153 1159.941040,401.772705 1160.081543,435.099945 
	C1160.097534,438.871796 1159.326782,440.162781 1155.246582,440.106232 
	C1137.419678,439.859131 1119.585327,439.860168 1101.758423,440.105682 
	C1097.687866,440.161774 1096.909546,438.885681 1096.919189,435.105133 
	C1097.041626,386.613464 1097.059692,338.121216 1096.899536,289.629761 
	C1096.884888,285.191071 1097.841553,283.213684 1102.529785,283.949158 
	C1104.481445,284.255310 1106.521240,284.000000 1109.017334,284.000000 
z"/>
<path fill="#FFFFFF" opacity="1.000000" stroke="none" 
	d="
M1717.000000,194.858276 
	C1716.387085,198.928299 1717.662109,199.883743 1721.476807,200.163666 
	C1732.831543,200.996918 1740.736938,194.731903 1748.372192,187.974869 
	C1752.555176,184.272995 1755.982910,179.728622 1759.886963,175.695587 
	C1761.576294,173.950607 1760.966187,171.954941 1760.968384,170.058350 
	C1761.011353,134.408554 1761.073242,98.758331 1760.900269,63.109325 
	C1760.880371,59.000729 1761.819824,57.829781 1766.041382,57.891403 
	C1783.695923,58.149128 1801.357300,58.090076 1819.014038,57.925838 
	C1822.645264,57.892059 1824.123047,58.439281 1824.108398,62.663925 
	C1823.938599,111.640228 1823.965942,160.617401 1824.073242,209.594055 
	C1824.080566,212.975220 1823.381836,214.127655 1819.755493,214.088806 
	C1801.599487,213.894348 1783.439209,213.897690 1765.283081,214.087082 
	C1761.709106,214.124374 1760.745605,213.089188 1760.922729,209.628952 
	C1761.210083,204.016159 1761.000122,198.377914 1761.000122,191.557144 
	C1755.340942,197.440491 1750.001953,202.104370 1743.815918,205.770187 
	C1733.519287,211.871780 1722.534424,215.671616 1710.561279,215.927109 
	C1702.189331,216.105774 1693.845947,216.351685 1685.502930,214.127136 
	C1667.862671,209.423660 1658.255005,197.945053 1654.903076,181.070175 
	C1654.084717,176.949921 1654.011230,172.896469 1654.009399,168.786987 
	C1653.993042,133.470322 1654.064087,98.153374 1653.909546,62.837383 
	C1653.892456,58.942120 1654.859985,57.852673 1658.812988,57.902328 
	C1676.635132,58.126217 1694.463867,58.148254 1712.285034,57.889744 
	C1716.434570,57.829544 1717.084839,59.237598 1717.074951,62.935600 
	C1716.958374,106.748009 1717.000000,150.560837 1717.000000,194.858276 
z"/>
<path fill="#FFFFFF" opacity="1.000000" stroke="none" 
	d="
M1005.000000,102.739357 
	C1005.000000,92.942451 1004.867798,83.608475 1005.077332,74.282181 
	C1005.143433,71.342003 1004.319214,69.793495 1001.431335,69.155296 
	C987.562317,66.090347 973.551697,65.945511 959.672791,68.301956 
	C948.383179,70.218750 937.640625,73.983620 929.051331,82.304512 
	C926.340332,84.930717 919.983337,84.707870 918.132690,82.336227 
	C915.782166,79.324020 915.617310,74.479675 919.409546,71.049934 
	C926.192932,64.915001 934.834900,62.690693 943.167358,60.141293 
	C960.007202,54.988976 977.207764,53.898998 994.807678,55.809082 
	C1006.215881,57.047184 1017.504944,58.289059 1028.402344,61.997475 
	C1045.508545,67.818771 1058.670166,77.849220 1064.370483,95.809372 
	C1066.609131,102.862770 1067.821777,110.192352 1067.885986,117.488037 
	C1068.156006,148.144669 1067.924927,178.805466 1068.095215,209.463531 
	C1068.116333,213.276291 1067.059082,214.131546 1063.384033,214.089096 
	C1046.057373,213.888947 1028.723389,213.803192 1011.400269,214.122803 
	C1006.360657,214.215775 1003.978027,213.113861 1004.970520,207.762833 
	C1005.113098,206.994110 1004.882019,206.156067 1004.784729,204.806335 
	C995.791626,210.165237 986.565308,214.000519 976.458801,215.195007 
	C954.492859,217.791122 933.643555,215.686417 915.555969,201.130753 
	C903.731750,191.615494 898.265686,179.238312 896.884399,164.362534 
	C895.748657,152.130524 897.327454,140.805344 903.908264,130.225525 
	C910.735901,119.249123 920.478577,111.866905 932.181946,107.114723 
	C944.003235,102.314690 956.568054,100.565735 969.238281,101.128769 
	C979.981323,101.606171 990.641235,103.354233 1000.780884,107.339676 
	C1002.069092,107.846031 1003.448364,108.120728 1005.000000,108.564041 
	C1005.000000,106.529396 1005.000000,104.867332 1005.000000,102.739357 
z"/>
<path fill="#FFFFFF" opacity="1.000000" stroke="none" 
	d="
M1632.991089,284.950165 
	C1653.275757,291.887695 1668.546875,304.157593 1677.701294,323.367767 
	C1683.967163,336.516266 1684.585815,350.601868 1683.989136,364.834106 
	C1683.841309,368.360565 1681.114624,366.931335 1679.512695,366.936279 
	C1651.179810,367.024170 1622.846558,366.999786 1594.513306,367.000183 
	C1588.000854,367.000275 1588.000244,367.001221 1588.000122,373.639771 
	C1587.999756,389.973022 1588.244141,406.312225 1587.846680,422.635803 
	C1587.731812,427.355438 1589.140015,429.256836 1593.564453,429.816864 
	C1609.779419,431.869293 1625.665771,431.360504 1640.331787,423.158173 
	C1647.614136,419.085297 1654.606689,414.472351 1659.377686,407.248993 
	C1661.230713,404.443604 1664.473022,403.298920 1667.448242,403.278992 
	C1672.548218,403.244751 1674.801270,408.788544 1671.746460,413.526672 
	C1667.019287,420.858215 1660.320923,426.087830 1652.943237,430.564362 
	C1634.017212,442.047943 1613.025024,443.657806 1591.912231,441.748779 
	C1570.422974,439.805756 1551.622681,430.674438 1537.032715,414.386261 
	C1526.805298,402.968628 1520.793945,389.555450 1518.838623,374.058777 
	C1516.610840,356.402466 1518.871582,339.580109 1527.144531,324.064148 
	C1538.603027,302.574188 1556.653931,289.240784 1580.621704,283.890015 
	C1590.674561,281.645752 1600.760620,280.554779 1610.984131,281.067017 
	C1618.306763,281.433868 1625.606934,282.374237 1632.991089,284.950165 
z"/>
<path fill="#FFFFFF" opacity="1.000000" stroke="none" 
	d="
M1950.000000,240.155090 
	C1950.000122,253.799698 1950.088867,266.965149 1949.933228,280.127716 
	C1949.897705,283.133423 1950.623291,284.072174 1953.779785,284.093811 
	C1962.571289,284.153961 1971.321411,283.657928 1980.074463,283.009949 
	C1981.068848,282.936340 1982.073486,282.990143 1983.073242,283.001801 
	C1988.013794,283.059387 1992.108887,286.124542 1991.967896,289.653564 
	C1991.831177,293.078064 1987.928589,295.908997 1983.265503,296.002960 
	C1974.481079,296.179932 1965.786377,294.505859 1956.968994,294.932465 
	C1950.013306,295.269012 1950.000000,295.000519 1950.000000,302.178436 
	C1949.999878,342.838135 1949.999878,383.497833 1950.000000,424.157532 
	C1950.000000,430.534271 1950.059326,430.894104 1955.990845,429.921509 
	C1966.718506,428.162598 1976.546631,424.404388 1982.748901,414.665802 
	C1984.200928,412.385986 1985.045044,409.696198 1986.014282,407.136536 
	C1987.998413,401.897125 1991.961182,399.535156 1996.278931,401.143951 
	C1999.861328,402.478699 2001.183105,408.033142 1999.071167,412.772217 
	C1993.903564,424.368500 1984.797485,432.193146 1973.411621,436.633514 
	C1954.681396,443.938110 1935.401123,444.472961 1916.154663,438.055878 
	C1900.016357,432.675201 1891.301147,421.030334 1887.947632,404.735809 
	C1887.002075,400.141510 1887.003052,395.566254 1887.002319,390.952576 
	C1886.997803,360.624451 1886.839355,330.294647 1887.155518,299.969818 
	C1887.209229,294.821838 1884.877197,294.128815 1881.377075,295.165894 
	C1877.069092,296.442322 1872.816772,295.836761 1868.548462,295.946869 
	C1864.691406,296.046326 1862.386353,293.887848 1862.040649,290.036011 
	C1861.715332,286.412567 1863.493652,284.071930 1867.093872,283.446899 
	C1871.686646,282.649506 1876.355957,282.516052 1880.913086,283.483795 
	C1886.832886,284.740875 1886.993652,284.743896 1886.999146,278.587524 
	C1887.003418,273.755035 1887.098999,268.919647 1886.957886,264.091278 
	C1886.890503,261.786560 1887.669922,260.522095 1889.827026,259.563385 
	C1909.451538,250.841324 1929.028687,242.012848 1948.629150,233.236542 
	C1948.879272,233.124557 1949.252441,233.287155 1950.000000,233.368668 
	C1950.000000,235.443787 1950.000000,237.559326 1950.000000,240.155090 
z"/>
<path fill="#FFFFFF" opacity="1.000000" stroke="none" 
	d="
M945.172119,436.968140 
	C932.641174,432.169495 922.199341,424.927124 913.661316,415.107727 
	C904.408325,404.466034 898.029846,392.352386 896.003052,378.214355 
	C895.283813,373.197571 894.082275,368.164856 894.095581,363.142059 
	C894.175354,333.138733 905.935486,309.233337 931.788269,293.072327 
	C942.308838,286.495758 953.883118,283.308929 966.252014,281.817566 
	C981.074463,280.030334 995.502930,280.994232 1009.372192,286.097778 
	C1035.731201,295.797363 1052.864380,314.653870 1058.690552,342.013367 
	C1064.240112,368.074310 1059.695557,392.895264 1042.316772,414.001129 
	C1030.136719,428.793304 1014.153015,437.987671 995.151733,440.873718 
	C978.437988,443.412323 961.720398,443.094879 945.172119,436.968140 
z"/>
<path fill="#FFFFFF" opacity="1.000000" stroke="none" 
	d="
M1907.188843,205.000000 
	C1914.411743,204.579697 1921.206787,205.834183 1927.932495,204.073090 
	C1930.853271,203.308258 1933.668213,202.130981 1935.860352,200.411179 
	C1940.886475,196.468216 1941.396240,192.407684 1936.163818,186.731628 
	C1929.225830,179.205627 1920.812134,173.371368 1912.909546,166.944550 
	C1897.041138,154.039093 1880.642944,141.472763 1869.088379,124.325203 
	C1859.077026,109.467628 1857.368164,92.885208 1868.025391,78.137054 
	C1874.447510,69.249847 1883.343140,63.592995 1893.631714,59.974167 
	C1908.015625,54.914791 1922.662476,54.306206 1937.774414,55.789375 
	C1948.960449,56.887245 1959.089233,60.111561 1968.470825,65.950943 
	C1972.144775,68.237686 1976.255737,70.508842 1976.012329,75.946671 
	C1975.808838,80.488380 1971.951416,83.071045 1967.994019,80.930840 
	C1964.570801,79.079567 1961.391357,76.766853 1958.156372,74.580879 
	C1946.394531,66.633041 1933.084229,65.202133 1919.517334,66.171204 
	C1911.074951,66.774231 1909.041992,73.682861 1914.122925,80.728455 
	C1920.423828,89.465591 1929.167114,95.445892 1937.545654,101.648247 
	C1950.311279,111.097969 1962.591187,121.026260 1973.214233,132.806137 
	C1992.367310,154.044739 1987.267700,186.361237 1966.518188,201.280685 
	C1955.606689,209.126358 1943.736694,213.526886 1930.520752,215.063904 
	C1913.514893,217.041702 1896.708496,216.853012 1880.416138,210.937973 
	C1872.936401,208.222443 1865.657349,204.998184 1860.701294,198.216812 
	C1858.398682,195.066010 1858.480469,192.183823 1861.147095,189.378754 
	C1863.693848,186.699707 1866.350708,186.535919 1869.381592,188.769623 
	C1874.484375,192.530243 1878.938232,197.170746 1885.028076,199.599487 
	C1892.034790,202.393890 1899.160278,204.492905 1907.188843,205.000000 
z"/>
<path fill="#FFFFFF" opacity="1.000000" stroke="none" 
	d="
M731.034058,121.427856 
	C732.880676,114.250893 734.357178,107.479553 737.348083,101.057808 
	C743.975037,86.828896 754.306213,76.154686 767.425598,67.915833 
	C784.923645,56.927242 804.358826,53.832516 824.447876,55.174675 
	C839.129089,56.155540 853.210022,60.329060 865.985474,68.027763 
	C869.896729,70.384773 874.058960,75.264801 872.309204,79.453331 
	C870.679382,83.354889 867.843079,85.048378 863.975891,83.459991 
	C860.313721,81.955811 857.408447,79.241013 854.145935,77.097084 
	C844.107971,70.500801 832.932251,67.318420 820.947632,67.017471 
	C816.619507,66.908791 812.268433,67.244316 807.960510,66.929924 
	C803.844116,66.629509 802.847290,68.325310 802.925964,72.158867 
	C803.141296,82.648506 803.000000,93.145462 803.000000,103.639519 
	C802.999939,134.955109 803.105652,166.271423 802.890625,197.585541 
	C802.856812,202.508804 804.104126,203.705902 809.170166,204.223221 
	C825.046631,205.844421 839.510193,202.133896 853.403259,194.926666 
	C857.517090,192.792587 860.783447,189.545288 864.528748,186.931396 
	C867.853455,184.611069 871.862793,183.538437 874.343933,186.532104 
	C876.765808,189.454330 875.557190,193.652603 872.815674,196.642685 
	C864.895569,205.281052 854.377686,209.493439 843.606873,212.881561 
	C830.494873,217.006134 816.716125,217.202057 803.352234,215.767944 
	C767.541565,211.925049 740.951538,190.830566 732.235413,154.227325 
	C729.717957,143.655487 731.000183,132.685822 731.034058,121.427856 
z"/>
<path fill="#FFFFFF" opacity="1.000000" stroke="none" 
	d="
M868.485596,309.787170 
	C863.817322,310.446503 860.290955,308.289825 857.441284,305.762177 
	C848.180969,297.548279 836.841919,294.783356 825.195496,293.146057 
	C819.313232,292.319122 813.214722,293.132751 807.221802,292.949463 
	C803.875061,292.847076 802.948730,294.231293 802.953857,297.395935 
	C803.023621,340.385437 803.023193,383.375122 802.947388,426.364594 
	C802.942566,429.098511 803.670837,429.722443 806.481689,430.129700 
	C820.859924,432.212921 834.354004,429.281891 847.613342,424.032684 
	C853.971985,421.515381 858.885559,416.939911 864.349915,413.138947 
	C867.513611,410.938324 871.038757,409.193268 874.005005,412.694153 
	C877.053284,416.291992 875.220093,420.048157 872.419495,423.036316 
	C863.577698,432.470734 852.059570,437.355347 839.850647,439.780060 
	C817.414368,444.235931 794.786560,444.194702 773.915833,433.742004 
	C750.672546,422.101074 735.924133,403.189484 732.041016,376.910400 
	C729.853455,362.106079 729.750977,347.340088 734.948242,332.961761 
	C741.056335,316.063965 752.342590,303.436829 767.323242,293.974579 
	C784.455078,283.153595 803.553772,279.910950 823.344421,281.148804 
	C838.385925,282.089630 852.776306,286.209198 865.915039,293.983643 
	C871.301697,297.171021 873.412170,301.830414 872.136047,306.323730 
	C871.560364,308.350983 870.113586,308.708313 868.485596,309.787170 
z"/>
<path fill="#FFFFFF" opacity="1.000000" stroke="none" 
	d="
M1844.711304,426.786713 
	C1834.724976,434.658081 1823.353882,438.954590 1811.467651,440.766541 
	C1793.480225,443.508636 1775.305054,443.453735 1757.942627,436.875946 
	C1735.722046,428.457642 1719.655884,413.691986 1711.878418,390.646851 
	C1704.506592,368.803802 1704.288208,346.994659 1714.180054,326.153503 
	C1724.479370,304.453674 1742.310547,291.100281 1765.524902,284.734253 
	C1790.250854,277.953735 1814.046631,280.498291 1837.166748,291.062225 
	C1840.927612,292.780609 1844.192627,295.295074 1846.926270,298.443420 
	C1849.361328,301.247620 1849.944580,304.416443 1847.739990,307.428162 
	C1845.821533,310.048889 1843.249390,310.300537 1839.911743,309.183167 
	C1835.041382,307.552643 1831.910767,303.648224 1827.693115,301.210907 
	C1813.507568,293.012970 1798.035889,292.447510 1782.310547,292.981903 
	C1780.020142,293.059753 1778.926147,294.002167 1778.999634,296.303223 
	C1779.036865,297.467896 1779.000244,298.634827 1779.000244,299.800751 
	C1778.999878,340.774628 1779.057983,381.748657 1778.921875,422.722076 
	C1778.906006,427.497009 1779.196777,429.718170 1785.299194,430.293854 
	C1802.622437,431.928192 1818.253052,428.013184 1832.814941,418.985077 
	C1835.576050,417.273193 1837.950806,414.947632 1840.565430,412.987457 
	C1843.687012,410.647217 1847.241211,409.607452 1850.466431,412.229645 
	C1853.208008,414.458740 1852.402344,418.885315 1849.193970,422.281586 
	C1847.822266,423.733582 1846.382080,425.120728 1844.711304,426.786713 
z"/>
<path fill="#FFFFFF" opacity="1.000000" stroke="none" 
	d="
M682.000000,371.000000 
	C682.000000,438.980865 681.980530,506.461731 682.037964,573.942505 
	C682.042419,579.174561 680.853271,583.934021 678.229187,588.426697 
	C675.593079,592.940063 669.979248,593.387207 667.052979,589.089050 
	C664.448730,585.263916 662.979492,581.023254 662.982849,576.287720 
	C663.012451,534.632874 663.000000,492.978027 663.000000,451.323181 
	C663.000000,313.528931 663.015686,175.734695 662.919800,37.940529 
	C662.917114,34.032162 663.650940,30.342480 665.205261,27.028561 
	C666.463379,24.346096 667.563416,20.842796 672.005554,20.908735 
	C676.482971,20.975199 678.566589,23.769007 679.862671,27.141487 
	C681.251099,30.754154 682.057922,34.565506 682.055359,38.594143 
	C681.986206,149.229385 682.000000,259.864716 682.000000,371.000000 
z"/>
<path fill="#FFFFFF" opacity="1.000000" stroke="none" 
	d="
M885.294800,548.699463 
	C889.451355,557.940796 893.384705,566.864746 897.648376,576.538147 
	C902.618164,565.438110 907.313843,554.960571 912.000305,544.478943 
	C914.392883,539.127625 916.783508,533.775391 919.144043,528.409973 
	C919.965332,526.543091 921.210815,525.934082 923.339355,525.925659 
	C929.999207,525.899292 929.999573,525.770203 929.999756,532.479736 
	C930.000305,549.643799 929.925049,566.808411 930.062195,583.971375 
	C930.090271,587.481201 929.709045,589.131226 925.390015,589.203918 
	C920.646240,589.283752 920.938049,586.947754 920.962341,583.744751 
	C921.055420,571.483643 921.000000,559.221436 920.273132,546.779602 
	C916.534790,554.807068 912.740540,562.809143 909.079346,570.871643 
	C906.929810,575.605347 904.987000,580.433044 902.960693,585.222534 
	C901.940063,587.635010 900.716064,589.187439 897.517273,589.154968 
	C894.482117,589.124084 893.667725,587.558350 892.707336,585.371460 
	C887.475647,573.459534 882.183716,561.573914 876.878174,549.694641 
	C876.291687,548.381531 875.486938,547.166016 874.000000,544.501404 
	C874.000000,548.229614 874.000061,550.565186 874.000000,552.900818 
	C873.999817,563.732483 873.787598,574.570496 874.107544,585.392700 
	C874.229187,589.508545 871.996948,588.985718 869.462830,589.028015 
	C866.821838,589.072083 864.844543,589.293213 864.895447,585.319214 
	C865.132568,566.825073 864.977173,548.326172 865.047363,529.829224 
	C865.052612,528.443542 864.042542,525.785950 866.796570,526.137634 
	C869.922119,526.536804 873.997864,523.785095 876.082520,528.332275 
	C879.134705,534.989990 882.080505,541.696411 885.294800,548.699463 
z"/>
<path fill="#FFFFFF" opacity="1.000000" stroke="none" 
	d="
M1778.529175,588.996460 
	C1769.585205,588.999146 1761.092529,588.893311 1752.605103,589.059265 
	C1749.808105,589.113953 1748.919678,588.338928 1748.938110,585.457520 
	C1749.059570,566.479126 1748.989624,547.499512 1749.022583,528.520386 
	C1749.025269,527.022522 1748.341187,524.877441 1751.126953,525.021729 
	C1760.529175,525.508667 1769.952148,524.129639 1779.366577,525.890869 
	C1786.599854,527.243958 1791.398560,531.162720 1792.817993,538.104004 
	C1794.314209,545.420227 1792.011841,551.772766 1784.695679,555.826233 
	C1788.947632,559.081970 1792.773926,562.397217 1793.972534,567.602478 
	C1796.185791,577.214417 1791.245972,584.779297 1783.672485,587.699463 
	C1782.166626,588.280151 1780.548706,588.569885 1778.529175,588.996460 
z"/>
<path fill="#FFFFFF" opacity="1.000000" stroke="none" 
	d="
M1441.000000,559.000000 
	C1441.000122,548.673828 1441.146362,538.844299 1440.919556,529.023376 
	C1440.841919,525.659912 1441.932373,524.698120 1445.129272,524.961182 
	C1454.280518,525.714294 1463.453613,524.059937 1472.676025,526.665833 
	C1478.981567,528.447571 1484.700317,537.256287 1485.021973,542.872986 
	C1485.441650,550.200256 1480.874878,559.328735 1474.920410,560.958862 
	C1470.133301,562.269287 1470.715210,564.192688 1473.049683,567.711487 
	C1477.515381,574.442688 1481.405273,581.555847 1485.824707,589.000000 
	C1483.166870,589.000000 1481.011597,588.735352 1478.948608,589.059265 
	C1475.457642,589.607300 1473.558960,587.968811 1471.997681,585.139404 
	C1468.380737,578.585266 1464.369629,572.237488 1460.992920,565.565918 
	C1458.942017,561.513367 1455.670044,563.103210 1452.881592,563.123901 
	C1449.462891,563.149292 1451.166382,566.162415 1451.091064,567.753845 
	C1450.847290,572.905212 1450.921509,578.076965 1451.027466,583.237732 
	C1451.099121,586.720032 1451.468750,589.380066 1446.116089,589.247375 
	C1441.318726,589.128479 1440.790771,587.457886 1440.921753,583.480042 
	C1441.184814,575.494507 1441.000000,567.494202 1441.000000,559.000000 
z"/>
<path fill="#FFFFFF" opacity="1.000000" stroke="none" 
	d="
M1214.809326,550.614990 
	C1215.188232,560.948608 1215.190186,570.655090 1207.857666,578.789490 
	C1202.038452,585.244873 1194.747437,588.256165 1186.512451,588.883301 
	C1179.228638,589.437927 1171.865723,588.870117 1164.544678,589.063354 
	C1161.656250,589.139587 1160.926025,588.189209 1160.942383,585.395935 
	C1161.054077,566.415344 1160.992554,547.433716 1161.017334,528.452454 
	C1161.019287,526.917969 1160.423706,524.848450 1163.195679,525.014038 
	C1171.770630,525.526428 1180.337769,524.395935 1188.961548,525.814392 
	C1203.273804,528.168579 1211.610962,536.252075 1214.809326,550.614990 
z"/>
<path fill="#FFFFFF" opacity="1.000000" stroke="none" 
	d="
M1814.000000,576.985657 
	C1814.000000,579.313049 1814.000610,581.145020 1813.999756,582.976990 
	C1813.997070,589.445312 1813.636963,589.657288 1807.382324,589.062805 
	C1805.291138,588.864014 1804.980957,587.984253 1804.983765,586.249329 
	C1805.014160,566.763855 1805.056030,547.278137 1804.961182,527.793091 
	C1804.940552,523.532654 1807.933472,525.252808 1809.850464,525.054138 
	C1811.905396,524.841187 1814.181519,524.351013 1814.065186,527.985168 
	C1813.836548,535.139160 1814.133179,542.309326 1813.936035,549.465210 
	C1813.855957,552.370544 1814.832642,553.115417 1817.616455,553.058594 
	C1825.773560,552.892151 1833.943115,552.805359 1842.093750,553.089355 
	C1845.666504,553.213867 1846.136719,551.752686 1846.055664,548.754028 
	C1845.875977,542.097229 1846.250732,535.419128 1845.904053,528.775513 
	C1845.704834,524.958069 1847.582520,524.810181 1850.368530,524.973938 
	C1852.776978,525.115601 1855.160889,524.254089 1855.105957,528.505737 
	C1854.860352,547.488403 1854.860474,566.477783 1855.106689,585.460449 
	C1855.161377,589.665833 1852.851562,588.918823 1850.401978,589.026672 
	C1847.670776,589.146912 1845.700073,589.139526 1845.901611,585.258240 
	C1846.254883,578.448364 1845.826416,571.600525 1846.076294,564.781433 
	C1846.192627,561.606323 1845.137817,560.860229 1842.129150,560.932922 
	C1833.973389,561.129761 1825.807617,561.101562 1817.650146,560.943848 
	C1814.914673,560.891052 1813.758789,561.539978 1813.940430,564.502869 
	C1814.184448,568.484924 1814.000366,572.493225 1814.000000,576.985657 
z"/>
<path fill="#FFFFFF" opacity="1.000000" stroke="none" 
	d="
M810.962036,557.898499 
	C814.656860,547.601562 818.552368,537.781982 821.859436,527.768066 
	C823.288391,523.441162 826.325134,525.332397 828.757996,525.082092 
	C830.884033,524.863403 832.979126,524.423706 834.150391,527.770386 
	C841.222412,547.978821 848.657410,568.060242 855.977966,588.203308 
	C847.408813,590.326111 845.607666,589.713501 843.231567,580.880493 
	C841.837402,575.697632 839.397522,574.562927 834.613831,574.908447 
	C829.144409,575.303528 823.607178,575.262573 818.133301,574.899597 
	C814.963745,574.689453 813.711243,576.102905 813.112549,578.684692 
	C812.481689,581.404846 811.279175,583.894409 810.357117,586.489258 
	C809.693237,588.357544 809.059021,588.990173 807.051514,589.062744 
	C799.646667,589.330688 799.569275,589.399292 802.017822,582.523315 
	C804.903931,574.418457 807.948303,566.369995 810.962036,557.898499 
z"/>
<path fill="#FFFFFF" opacity="1.000000" stroke="none" 
	d="
M1937.031982,584.185425 
	C1935.585815,588.385071 1930.760620,590.562012 1927.125122,588.909729 
	C1925.023682,587.954529 1926.414185,586.603333 1926.891113,585.284973 
	C1932.080200,570.939209 1937.220703,556.575867 1942.364868,542.213928 
	C1943.623657,538.699219 1945.118164,535.239929 1946.024048,531.634521 
	C1947.370483,526.275452 1950.208618,523.998291 1955.924805,524.852173 
	C1958.103149,525.177551 1959.250000,525.889526 1959.893921,527.666077 
	C1966.864380,546.891846 1973.802002,566.129517 1980.719238,585.374512 
	C1981.104614,586.447021 1981.231812,587.612366 1981.478638,588.737427 
	C1981.169678,588.816589 1980.862549,588.953125 1980.552612,588.960083 
	C1971.787964,589.157288 1971.564941,589.220703 1969.136353,580.950928 
	C1967.844604,576.552734 1965.972412,574.242371 1960.990356,574.906433 
	C1957.389282,575.386292 1953.672607,575.000000 1950.007568,575.000000 
	C1940.533813,575.000000 1940.533813,575.000000 1937.031982,584.185425 
z"/>
<path fill="#FFFFFF" opacity="1.000000" stroke="none" 
	d="
M789.338257,537.763794 
	C790.628540,539.845886 793.346680,541.473389 791.071655,543.780212 
	C789.590454,545.282104 781.592529,543.537720 780.336426,541.875977 
	C774.143677,533.682800 765.372009,530.785583 755.963745,533.478638 
	C742.256897,537.402100 738.381836,551.732361 740.391785,562.594543 
	C742.267639,572.732300 748.494507,579.250488 758.948425,581.557800 
	C766.398682,583.202148 776.015564,579.380615 780.122314,572.559021 
	C781.355408,570.510925 790.221680,568.717529 791.590637,570.352783 
	C792.426514,571.351196 791.728821,572.404236 791.175598,573.500061 
	C787.068176,581.635803 780.363159,586.571655 771.788574,588.918762 
	C755.768921,593.303650 736.049316,585.097290 731.781860,566.319885 
	C727.482727,547.403076 736.177979,528.459412 756.503662,524.931946 
	C770.011963,522.587646 781.045593,525.974609 789.338257,537.763794 
z"/>
<path fill="#FFFFFF" opacity="1.000000" stroke="none" 
	d="
M1074.384766,524.034729 
	C1082.424438,523.896179 1089.367188,525.213013 1094.907715,531.243103 
	C1097.458740,534.019531 1097.904907,537.230225 1098.930664,540.709045 
	C1093.679443,541.331909 1089.457031,541.492920 1085.568115,536.407410 
	C1079.389526,528.327881 1066.990723,532.669373 1065.488281,539.883118 
	C1064.606567,544.117065 1067.602539,549.067871 1073.001709,550.943604 
	C1078.658813,552.908875 1084.526001,554.150330 1090.104614,556.468689 
	C1098.425415,559.926636 1099.679199,566.591064 1098.967651,574.281372 
	C1098.355591,580.895630 1094.602783,585.554016 1088.613770,587.900635 
	C1079.995117,591.277588 1071.421875,590.995300 1063.245972,586.064453 
	C1057.986084,582.892212 1055.839844,578.122742 1055.633057,572.000427 
	C1057.583618,572.000427 1059.573364,572.032532 1061.561768,571.992004 
	C1063.830322,571.945740 1065.106323,572.297974 1066.229858,575.028564 
	C1069.773438,583.640930 1083.268066,584.562866 1088.596069,576.883545 
	C1091.970947,572.019287 1089.323120,565.315125 1083.097290,563.057129 
	C1077.166016,560.905945 1070.838257,559.980896 1065.147461,557.049683 
	C1057.586060,553.155029 1054.476807,546.892944 1056.035889,538.232056 
	C1057.215942,531.676086 1063.536743,525.986511 1070.674438,524.976685 
	C1071.784790,524.819580 1072.854370,524.372864 1074.384766,524.034729 
z"/>
<path fill="#FFFFFF" opacity="1.000000" stroke="none" 
	d="
M1044.000000,551.999939 
	C1043.734253,559.631592 1045.247559,566.970825 1043.435059,573.863220 
	C1039.764648,587.820862 1026.418823,591.769653 1014.129211,589.543335 
	C1001.862366,587.321106 995.756592,578.232056 995.956665,565.964966 
	C996.154907,553.807800 996.179382,541.640686 995.896484,529.486877 
	C995.805603,525.585388 997.056885,524.845947 1000.654846,524.864807 
	C1004.114014,524.883057 1005.155640,525.747009 1005.086731,529.294678 
	C1004.857056,541.117493 1005.186829,552.951233 1004.948242,564.773682 
	C1004.702271,576.963623 1012.469971,584.283936 1025.273438,581.009277 
	C1030.843140,579.584778 1034.956055,573.984863 1034.985107,567.246765 
	C1035.037476,555.086609 1034.994019,542.925964 1035.004028,530.765564 
	C1035.006592,527.761475 1034.019287,524.832825 1039.369385,524.760681 
	C1045.014404,524.684631 1044.014282,527.787292 1044.005493,531.010437 
	C1043.987061,537.840210 1044.000000,544.670166 1044.000000,551.999939 
z"/>
<path fill="#FFFFFF" opacity="1.000000" stroke="none" 
	d="
M962.885010,525.000000 
	C971.578857,524.891479 979.302917,526.274048 983.935974,533.965637 
	C991.336792,546.252258 984.279419,562.172302 967.105469,562.996826 
	C966.773132,563.012756 966.437683,562.977539 966.106506,563.003174 
	C961.851135,563.332520 956.032227,561.096436 953.757324,563.965149 
	C951.621094,566.658936 953.092285,572.225220 953.006775,576.528137 
	C952.967041,578.525940 953.000244,580.525208 952.999939,582.523804 
	C952.998718,589.545349 953.004028,589.446350 945.835205,589.058044 
	C943.711609,588.942993 942.956116,588.387451 942.963745,586.195007 
	C943.031250,566.709045 943.033508,547.222534 942.962341,527.736572 
	C942.954041,525.462219 943.855713,524.932739 945.913757,524.969177 
	C951.408081,525.066589 956.905396,525.000854 962.885010,525.000000 
z"/>
<path fill="#FFFFFF" opacity="1.000000" stroke="none" 
	d="
M1375.692627,554.717529 
	C1371.768921,565.087463 1367.875854,575.065491 1364.469238,585.206848 
	C1362.685547,590.516602 1358.627563,588.503235 1355.211914,589.040344 
	C1351.718384,589.589783 1351.238525,587.159851 1350.361450,584.809814 
	C1343.000488,565.083862 1335.590820,545.376099 1328.195557,525.662048 
	C1328.952881,524.633240 1330.029907,525.167786 1330.939575,525.001038 
	C1336.356812,524.007935 1338.726562,526.080261 1340.520142,531.609497 
	C1345.514160,547.005249 1351.527832,562.070190 1357.422119,578.033020 
	C1359.416016,573.034424 1361.253784,568.715942 1362.870728,564.316406 
	C1366.953369,553.207642 1371.375610,542.193665 1374.760620,530.872253 
	C1376.286011,525.770020 1378.611572,524.237915 1383.372925,524.978455 
	C1384.342773,525.129333 1385.356079,525.000305 1386.807129,525.000305 
	C1383.105225,534.999756 1379.515259,544.696594 1375.692627,554.717529 
z"/>
<path fill="#FFFFFF" opacity="1.000000" stroke="none" 
	d="
M1236.024048,525.000000 
	C1242.848999,525.000000 1249.182861,525.162842 1255.502441,524.932678 
	C1258.748047,524.814392 1260.171143,525.367004 1260.151978,529.139709 
	C1260.133545,532.759766 1258.655518,533.131592 1255.725342,533.049927 
	C1249.735107,532.883118 1243.728027,533.194519 1237.745483,532.922546 
	C1234.510376,532.775513 1233.695190,533.953430 1233.966309,536.908386 
	C1234.447144,542.150452 1231.725342,549.189148 1235.085205,552.163940 
	C1238.016479,554.759094 1244.946777,552.508789 1250.009155,553.171631 
	C1252.345947,553.477600 1256.736450,550.060120 1257.084351,556.159485 
	C1257.307007,560.060486 1256.182495,561.399231 1252.195679,561.085144 
	C1247.561768,560.720032 1242.869751,561.157593 1238.216797,560.944214 
	C1235.168579,560.804382 1233.680542,561.407166 1233.926147,564.937561 
	C1234.305298,570.389832 1232.140381,577.539062 1234.854858,580.891907 
	C1237.708984,584.417419 1245.140869,581.623413 1250.558594,581.981018 
	C1252.382446,582.101379 1254.235229,582.145630 1256.049438,581.966858 
	C1258.901367,581.685791 1260.187744,582.355347 1260.127197,585.683289 
	C1260.069458,588.853699 1258.687500,589.069214 1256.189819,589.040833 
	C1247.032227,588.936829 1237.871338,588.918640 1228.714478,589.050354 
	C1226.072510,589.088318 1224.913696,588.587585 1224.934570,585.565674 
	C1225.066040,566.582703 1225.053101,547.598145 1224.943237,528.614868 
	C1224.927124,525.836121 1225.625366,524.670898 1228.537354,524.955444 
	C1230.846802,525.180969 1233.195679,525.000305 1236.024048,525.000000 
z"/>
<path fill="#FFFFFF" opacity="1.000000" stroke="none" 
	d="
M1395.000000,555.000000 
	C1395.000122,546.007385 1395.086792,537.513428 1394.950562,529.023010 
	C1394.906250,526.263672 1395.226440,524.824219 1398.627075,524.914917 
	C1407.945557,525.163635 1417.281128,525.192139 1426.597656,524.907715 
	C1430.355469,524.792908 1429.934814,526.825439 1430.050049,529.232727 
	C1430.173706,531.815430 1429.750610,533.182068 1426.627075,533.069580 
	C1420.141113,532.836121 1413.639526,533.079224 1407.147339,532.959839 
	C1404.848999,532.917542 1403.641846,533.523682 1403.999268,536.002136 
	C1404.022827,536.165161 1403.989502,536.335693 1404.002686,536.501160 
	C1404.434570,541.908875 1401.562012,549.340698 1405.140869,552.187134 
	C1408.536621,554.887878 1415.656128,553.131409 1421.123047,552.928528 
	C1425.122559,552.780151 1427.882935,553.044678 1427.104370,558.273376 
	C1426.780396,560.449158 1426.176025,561.068054 1424.105591,561.031982 
	C1418.445557,560.933228 1412.780640,561.090759 1407.121948,560.958557 
	C1404.790649,560.904114 1403.876221,561.575256 1403.954712,564.028809 
	C1404.114380,569.019348 1404.120361,574.022522 1403.953369,579.012573 
	C1403.869385,581.521179 1404.884644,582.079834 1407.163208,582.039124 
	C1413.655518,581.923218 1420.153809,582.107361 1426.644165,581.948120 
	C1429.212646,581.885132 1430.118896,582.589600 1430.087891,585.275513 
	C1430.057739,587.896057 1429.657959,589.133118 1426.595581,589.069336 
	C1417.274414,588.875122 1407.942139,588.836060 1398.623657,589.085205 
	C1395.218140,589.176208 1394.916016,587.726929 1394.951172,584.973816 
	C1395.076782,575.150574 1395.000122,565.324829 1395.000000,555.000000 
z"/>
<path fill="#FFFFFF" opacity="1.000000" stroke="none" 
	d="
M1521.000000,581.913452 
	C1520.697754,585.429199 1522.737183,589.549011 1516.461792,589.183044 
	C1512.614746,588.958679 1511.505371,587.918823 1511.980713,584.340515 
	C1513.693604,571.446350 1510.256104,559.914185 1503.584106,548.828796 
	C1499.082764,541.349915 1494.665527,533.692871 1491.483643,525.444397 
	C1491.907471,525.258240 1492.161377,525.094666 1492.437988,525.032776 
	C1499.315796,523.494568 1503.117920,526.322388 1505.609863,532.895874 
	C1508.540039,540.625305 1512.563965,547.940063 1516.443359,556.131104 
	C1521.178223,546.585144 1525.612305,537.630554 1530.061279,528.683411 
	C1531.602173,525.584534 1537.993774,523.497986 1541.041626,525.109741 
	C1543.216553,526.259949 1541.187256,527.558167 1540.799194,528.301636 
	C1536.051514,537.396912 1531.596436,546.700500 1526.093506,555.330200 
	C1520.837891,563.572144 1520.643677,572.333923 1521.000000,581.913452 
z"/>
<path fill="#FFFFFF" opacity="1.000000" stroke="none" 
	d="
M1663.000000,551.001099 
	C1662.999634,545.838379 1662.827026,541.166626 1663.061401,536.515381 
	C1663.209717,533.574036 1662.124023,532.783386 1659.361450,532.949768 
	C1655.876831,533.159546 1652.358154,532.818970 1648.875732,533.046021 
	C1645.115356,533.291199 1646.125244,530.707092 1646.005737,528.736694 
	C1645.879883,526.663330 1645.714966,524.898010 1648.900146,524.937622 
	C1661.555176,525.095093 1674.214844,525.115540 1686.869019,524.927551 
	C1690.320068,524.876221 1690.021118,526.762878 1690.026855,529.005859 
	C1690.032593,531.263123 1690.304688,533.349304 1686.853638,533.054993 
	C1683.712402,532.787048 1680.508423,533.230774 1677.371582,532.938171 
	C1673.909058,532.615234 1672.865112,533.707458 1672.912354,537.281921 
	C1673.117310,552.767334 1672.878418,568.258606 1673.085693,583.743896 
	C1673.137207,587.598511 1672.610474,589.290955 1668.110962,589.180054 
	C1664.042603,589.079834 1662.760132,588.219910 1662.890015,583.972412 
	C1663.220581,573.157532 1663.000000,562.325745 1663.000000,551.001099 
z"/>
<path fill="#FFFFFF" opacity="1.000000" stroke="none" 
	d="
M1900.000000,532.086060 
	C1900.000000,547.548950 1900.146973,562.523376 1899.899292,577.491333 
	C1899.835571,581.344849 1900.986572,582.318542 1904.635254,582.078003 
	C1909.438721,581.761353 1914.287231,582.174805 1919.100220,581.941345 
	C1922.291016,581.786560 1921.972656,583.654602 1922.035522,585.724976 
	C1922.100098,587.849182 1921.825928,589.099182 1919.149048,589.053772 
	C1910.334717,588.904114 1901.515625,588.933960 1892.699951,589.038940 
	C1890.390869,589.066467 1889.967651,588.067749 1889.972778,586.055664 
	C1890.022095,566.758545 1890.094849,547.460388 1889.925171,528.164612 
	C1889.890381,524.205872 1892.316040,524.805481 1894.460449,525.074524 
	C1896.585083,525.341187 1900.335815,523.152771 1900.009277,528.102478 
	C1899.932739,529.261902 1899.999268,530.430725 1900.000000,532.086060 
z"/>
<path fill="#FFFFFF" opacity="1.000000" stroke="none" 
	d="
M1299.759033,588.998535 
	C1291.295532,588.999268 1283.307251,588.900757 1275.323730,589.054199 
	C1272.700073,589.104614 1271.933594,588.302307 1271.947388,585.679443 
	C1272.047974,566.545837 1272.111450,547.410278 1271.918579,528.278076 
	C1271.874390,523.888428 1274.629150,525.199097 1276.852905,524.998901 
	C1279.409912,524.768677 1281.133545,524.890381 1281.088501,528.485291 
	C1280.884155,544.788391 1281.118408,561.096985 1280.909668,577.399963 
	C1280.862427,581.088013 1281.728882,582.369385 1285.546143,582.085876 
	C1290.344849,581.729492 1295.190063,581.998047 1300.015259,582.004211 
	C1301.508667,582.006165 1303.299316,581.780212 1302.954468,584.137146 
	C1302.674683,586.048645 1304.486938,589.268005 1299.759033,588.998535 
z"/>
<path fill="#FFFFFF" opacity="1.000000" stroke="none" 
	d="
M1615.000000,543.001099 
	C1615.000000,557.159180 1614.773438,570.823547 1615.128296,584.472778 
	C1615.245605,588.984924 1613.234619,589.086304 1609.882202,589.077332 
	C1606.710571,589.068787 1604.813843,589.046997 1604.879639,584.738831 
	C1605.162231,566.254272 1605.208740,547.758972 1604.861816,529.276611 
	C1604.768677,524.320984 1607.358398,525.171875 1610.360840,524.920227 
	C1614.021973,524.613220 1615.418335,525.638000 1615.084595,529.516541 
	C1614.714722,533.815491 1615.000000,538.170715 1615.000000,543.001099 
z"/>
<path fill="#FFFFFF" opacity="1.000000" stroke="none" 
	d="
M1637.000000,537.017456 
	C1637.000000,553.339966 1636.849487,569.168518 1637.104370,584.990540 
	C1637.168823,589.002502 1635.390991,589.129028 1632.367065,589.070007 
	C1629.593872,589.015869 1627.856689,589.027039 1627.900757,585.227661 
	C1628.119019,566.405457 1628.121460,547.577820 1627.899902,528.755615 
	C1627.854736,524.924683 1629.627686,524.832886 1632.386475,524.973389 
	C1634.818970,525.097168 1637.614380,524.284607 1637.062256,528.532898 
	C1636.721680,531.154114 1636.999634,533.855652 1637.000000,537.017456 
z"/>
<path fill="#FFFFFF" opacity="1.000000" stroke="none" 
	d="
M1311.000000,576.982544 
	C1311.000000,560.660034 1311.150391,544.831482 1310.895630,529.009460 
	C1310.831055,524.997498 1312.609009,524.870972 1315.632935,524.930054 
	C1318.406128,524.984192 1320.143188,524.972961 1320.099243,528.772339 
	C1319.880981,547.594543 1319.878662,566.422180 1320.100220,585.244385 
	C1320.145264,589.075317 1318.372314,589.167114 1315.613525,589.026611 
	C1313.181030,588.902832 1310.385864,589.715393 1310.937744,585.467102 
	C1311.278198,582.845886 1311.000244,580.144348 1311.000000,576.982544 
z"/>
<path fill="#FFFFFF" opacity="1.000000" stroke="none" 
	d="
M2000.000000,531.115112 
	C2000.000000,549.261780 1999.854126,566.925354 2000.110107,584.583008 
	C2000.168457,588.614624 1998.731689,589.073975 1995.277100,589.131287 
	C1991.692627,589.190735 1990.886230,588.073730 1990.919312,584.633545 
	C1991.092407,566.640625 1991.017578,548.645020 1990.983643,530.650513 
	C1990.977661,527.480957 1990.341187,524.771240 1995.489868,524.777466 
	C2000.596924,524.783691 2000.155884,527.423767 2000.000000,531.115112 
z"/>
<path fill="#FFFFFF" opacity="1.000000" stroke="none" 
	d="
M1877.000000,538.011230 
	C1877.000000,553.835571 1876.856934,569.163757 1877.100098,584.485840 
	C1877.161133,588.331177 1876.024170,589.184265 1872.371826,589.135803 
	C1868.960083,589.090576 1867.876831,588.314514 1867.913086,584.733704 
	C1868.100464,566.244507 1868.101074,547.751404 1867.913086,529.262268 
	C1867.876587,525.675720 1868.971069,524.913330 1872.375854,524.864197 
	C1876.036133,524.811401 1877.546631,525.666931 1877.062866,529.524536 
	C1876.733765,532.148682 1877.000000,534.847412 1877.000000,538.011230 
z"/>
<path fill="#FFFFFF" opacity="1.000000" stroke="none" 
	d="
M1725.949707,552.000000 
	C1727.775879,552.000000 1729.123169,552.123413 1730.439697,551.975403 
	C1733.570679,551.623413 1735.132080,552.195251 1735.167480,556.081482 
	C1735.205322,560.236572 1733.157227,560.066406 1730.276001,560.036804 
	C1720.777222,559.939087 1711.275513,559.911133 1701.777832,560.048889 
	C1698.546387,560.095764 1697.016357,559.387817 1696.862915,555.671021 
	C1696.697754,551.673401 1698.818604,551.952820 1701.457642,551.975342 
	C1709.456787,552.043579 1717.457031,552.000000 1725.949707,552.000000 
z"/>
<path fill="#FFFFFF" opacity="1.000000" stroke="none" 
	d="
M1131.992188,552.000000 
	C1135.654785,552.000061 1138.839722,552.225220 1141.978149,551.939087 
	C1145.342529,551.632446 1146.031494,552.942871 1146.130249,556.115295 
	C1146.242676,559.725098 1144.700317,560.097778 1141.744141,560.053162 
	C1132.252808,559.909790 1122.756714,559.912048 1113.265259,560.052063 
	C1110.323730,560.095459 1108.872437,559.733337 1108.848389,556.129883 
	C1108.822998,552.340271 1110.278564,551.809998 1113.509033,551.934204 
	C1119.495972,552.164368 1125.498291,552.000000 1131.992188,552.000000 
z"/>
<path fill="#4C6971" opacity="1.000000" stroke="none" 
	d="
M257.749146,588.988281 
	C240.940414,588.997864 224.609222,588.886597 208.281876,589.087708 
	C204.702469,589.131836 203.924438,588.065369 203.925995,584.629333 
	C204.009781,399.169342 204.011322,213.709320 203.918411,28.249313 
	C203.916595,24.634693 205.013504,23.921751 208.402222,23.926945 
	C273.054810,24.026079 337.707642,24.030724 402.360168,23.919003 
	C405.985931,23.912739 407.094452,24.658031 407.092255,28.511677 
	C406.986511,213.805008 406.988434,399.098450 407.082550,584.391785 
	C407.084442,588.072632 406.261993,589.156494 402.455383,589.097839 
	C387.128998,588.861511 371.794220,588.846069 356.468597,589.105652 
	C352.522491,589.172485 351.911469,587.862671 351.922791,584.315308 
	C352.046204,545.657349 351.869232,506.998108 352.095306,468.341064 
	C352.149414,459.091492 346.398468,452.600739 336.712799,452.840179 
	C315.730133,453.358917 294.725800,452.991974 273.730316,453.003845 
	C264.975983,453.008789 260.006653,457.941864 260.004395,466.646637 
	C259.994354,505.804871 260.023529,544.963196 259.915253,584.121094 
	C259.910828,585.714172 261.520844,588.345703 257.749146,588.988281 
z"/>
<path fill="#4C6971" opacity="1.000000" stroke="none" 
	d="
M69.000000,517.000000 
	C69.000000,412.872833 69.025421,309.245636 68.899025,205.618622 
	C68.894386,201.813171 69.940323,199.828445 73.346344,198.143372 
	C107.896851,181.050095 142.368454,163.797348 176.865829,146.596634 
	C177.997086,146.032562 179.167145,145.546402 180.386658,144.993286 
	C181.455673,146.943909 180.974243,148.783936 180.974579,150.530304 
	C181.002151,294.808624 180.979721,439.087006 181.095856,583.365234 
	C181.099426,587.787598 180.182739,589.280945 175.481430,589.123108 
	C164.165176,588.743042 152.822739,588.812866 141.501160,589.102783 
	C137.609726,589.202515 136.900665,587.953247 136.917831,584.348267 
	C137.062134,554.027161 137.032425,523.705017 136.966629,493.383392 
	C136.956177,488.566101 136.228745,483.778503 132.019272,480.592743 
	C127.671188,477.302063 123.018745,477.153503 118.282120,479.930420 
	C114.303642,482.262939 112.990593,485.899719 112.992584,490.275513 
	C113.006638,521.263672 112.870613,552.252991 113.132309,583.238953 
	C113.174049,588.181335 111.832123,589.278931 107.106987,589.120178 
	C95.957153,588.745544 84.782753,588.843445 73.625748,589.089050 
	C69.962524,589.169678 68.867897,588.304565 68.902206,584.473083 
	C69.102066,562.150208 69.000038,539.824646 69.000000,517.000000 
z"/>
<path fill="#4C6971" opacity="1.000000" stroke="none" 
	d="
M431.000000,383.000000 
	C431.000000,303.431671 431.000000,224.363327 431.000000,144.555756 
	C444.700165,151.363663 457.687317,157.784042 470.644958,164.263519 
	C493.439209,175.661819 516.199524,187.128174 539.020264,198.473053 
	C541.720825,199.815598 543.118713,201.098129 543.114929,204.605957 
	C542.977905,331.073242 542.975769,457.540710 543.103516,584.007996 
	C543.107849,588.297302 541.886597,589.202515 537.838684,589.099915 
	C526.515564,588.812927 515.176514,588.831421 503.852112,589.092957 
	C499.970337,589.182556 498.880798,588.173096 498.903259,584.198669 
	C499.078308,553.207642 499.018616,522.215149 498.989014,491.223145 
	C498.979584,481.371063 491.024200,475.582062 482.349274,479.016510 
	C477.964233,480.752563 475.007629,485.633331 475.005524,491.284027 
	C474.994049,521.942810 474.866577,552.602722 475.134338,583.259155 
	C475.177826,588.238831 473.772827,589.274475 469.085480,589.117615 
	C458.100616,588.749878 447.089325,588.796082 436.100830,589.104797 
	C431.958679,589.221130 430.883789,588.142639 430.897552,583.946899 
	C431.057739,535.126709 431.000000,486.305756 431.000000,437.484985 
	C431.000000,419.489990 431.000000,401.494995 431.000000,383.000000 
z"/>
<path fill="#4C6971" opacity="1.000000" stroke="none" 
	d="
M284.000000,557.000000 
	C284.000061,531.509094 284.091888,506.517487 283.902893,481.528015 
	C283.873962,477.699493 284.959900,476.836670 288.624481,476.910858 
	C300.448639,477.150208 312.281982,477.093201 324.108887,476.935333 
	C327.081238,476.895660 328.085846,477.567383 328.074829,480.760529 
	C327.954620,515.580750 327.955750,550.401672 328.073517,585.221985 
	C328.084259,588.387207 327.128510,589.107361 324.126312,589.066650 
	C312.132874,588.904175 300.134521,588.898132 288.141296,589.068115 
	C284.977844,589.112976 283.830444,588.375671 283.918640,584.987854 
	C284.157074,575.830750 284.000122,566.663330 284.000000,557.000000 
z"/>
<path fill="#4C6971" opacity="1.000000" stroke="none" 
	d="
M1495.483276,78.095116 
	C1509.478882,68.080978 1525.012451,66.203651 1541.240967,66.921135 
	C1544.549072,67.067383 1543.992554,68.966232 1543.994507,70.888069 
	C1544.005249,82.216957 1544.000000,93.545860 1544.000000,104.874763 
	C1544.000122,136.362442 1543.929321,167.850479 1544.083740,199.337402 
	C1544.104492,203.582031 1543.117554,205.317566 1538.545898,205.078110 
	C1524.200928,204.326675 1510.375122,201.755219 1497.563477,194.916656 
	C1495.873047,194.014359 1494.916748,193.099060 1494.926880,190.832184 
	C1495.092896,153.352341 1495.124878,115.871895 1495.483276,78.095116 
z"/>
<path fill="#4C6971" opacity="1.000000" stroke="none" 
	d="
M1005.000000,163.000000 
	C1004.999939,171.327820 1004.949097,179.156174 1005.029724,186.983170 
	C1005.055054,189.432297 1004.522827,190.912811 1002.188721,192.559540 
	C992.215027,199.596161 981.116699,203.291672 969.208862,204.968643 
	C965.981689,205.423141 963.827454,205.255951 963.871216,200.588531 
	C964.131897,172.777206 964.046753,144.962021 963.935669,117.148705 
	C963.923096,114.007919 964.634766,113.034431 967.993225,112.886444 
	C980.259705,112.345970 991.500854,116.074532 1002.718018,120.255051 
	C1005.278137,121.209175 1005.010620,123.048828 1005.008057,125.026390 
	C1004.992065,137.517578 1004.999939,150.008789 1005.000000,163.000000 
z"/>
<path fill="#4C6971" opacity="1.000000" stroke="none" 
	d="
M1607.000244,356.000000 
	C1601.507812,355.999695 1596.513184,355.914978 1591.523438,356.036224 
	C1589.179810,356.093140 1587.921753,355.763885 1587.940308,352.877899 
	C1588.060791,334.239471 1588.021484,315.599884 1587.972778,296.960815 
	C1587.967773,295.000946 1588.340820,294.181274 1590.616333,293.881531 
	C1601.804810,292.407776 1612.919678,292.316956 1624.034546,294.474854 
	C1626.420776,294.938110 1627.065430,296.093689 1627.052612,298.459808 
	C1626.954956,316.432770 1626.945068,334.406830 1627.056519,352.379639 
	C1627.073608,355.146423 1626.391235,356.184418 1623.473755,356.062347 
	C1618.157715,355.839935 1612.825439,355.999695 1607.000244,356.000000 
z"/>
<path fill="#4C6971" opacity="1.000000" stroke="none" 
	d="
M1042.318604,390.252991 
	C1034.760498,408.224884 1021.467834,419.662537 1003.990051,426.422821 
	C995.563721,429.682098 986.530884,430.337769 977.567078,431.035065 
	C974.718384,431.256653 973.939941,430.236847 973.945068,427.428162 
	C974.024780,383.798187 974.013000,340.168060 973.967163,296.537994 
	C973.964722,294.215973 974.224121,293.029480 977.106567,292.923401 
	C997.485657,292.173340 1015.200439,298.522003 1029.468506,313.113068 
	C1039.802734,323.681122 1045.141724,336.737061 1047.133789,351.476227 
	C1048.938477,364.828735 1047.309082,377.505554 1042.318604,390.252991 
z"/>
<path fill="#4C6971" opacity="1.000000" stroke="none" 
	d="
M1767.897461,582.000000 
	C1759.000000,581.999878 1758.999756,581.999878 1759.000244,573.789062 
	C1759.000488,570.126465 1758.992798,566.463867 1759.007935,562.801331 
	C1759.013428,561.490479 1758.770386,559.931763 1760.846558,560.027283 
	C1766.591797,560.291626 1772.439941,559.097595 1778.063965,561.073975 
	C1783.223145,562.887024 1785.511353,566.823608 1784.996094,572.722229 
	C1784.612915,577.106628 1781.218262,580.059998 1776.140381,581.080383 
	C1773.548828,581.601196 1771.017334,582.144226 1767.897461,582.000000 
z"/>
<path fill="#4C6971" opacity="1.000000" stroke="none" 
	d="
M1775.362793,551.981201 
	C1770.777222,551.996399 1766.623535,551.819275 1762.494141,552.059448 
	C1759.557007,552.230347 1758.626831,551.104126 1758.980347,548.371704 
	C1759.106812,547.393738 1758.975342,546.384766 1759.004395,545.391235 
	C1759.119751,541.448730 1757.756104,536.193298 1759.765503,533.904785 
	C1762.149414,531.189575 1767.585815,533.575623 1771.615601,532.944580 
	C1777.501953,532.022766 1782.361938,536.174194 1783.697021,541.366882 
	C1784.733887,545.399780 1781.897949,549.098267 1775.362793,551.981201 
z"/>
<path fill="#4C6971" opacity="1.000000" stroke="none" 
	d="
M1458.931519,556.000000 
	C1451.000122,555.999023 1450.999756,555.999023 1451.000122,548.320312 
	C1451.000366,544.157104 1450.988525,539.993835 1451.010864,535.830750 
	C1451.017700,534.540161 1450.723999,532.983154 1452.818481,533.021545 
	C1457.466064,533.106812 1462.214478,532.635071 1466.735596,533.438965 
	C1472.599609,534.481689 1475.478271,539.325012 1474.997192,545.567139 
	C1474.564087,551.187317 1470.114014,555.398560 1463.897583,555.974121 
	C1462.411377,556.111755 1460.901978,555.998047 1458.931519,556.000000 
z"/>
<path fill="#4C6971" opacity="1.000000" stroke="none" 
	d="
M1176.003662,582.000000 
	C1170.913940,582.871094 1169.780762,580.879272 1169.891235,576.394348 
	C1170.202515,563.753723 1170.258301,551.092346 1169.868286,538.456116 
	C1169.719604,533.638367 1171.370239,532.428467 1175.689819,532.966614 
	C1180.076172,533.513062 1184.462280,532.734497 1188.952393,533.790527 
	C1197.463501,535.792114 1202.364746,541.217590 1204.445190,549.088745 
	C1206.609741,557.277283 1206.275757,565.326782 1201.140381,572.846741 
	C1197.765869,577.788086 1192.843384,579.696960 1187.697998,580.768982 
	C1184.096802,581.519226 1180.321167,582.644775 1176.003662,582.000000 
z"/>
<path fill="#4C6971" opacity="1.000000" stroke="none" 
	d="
M837.662903,565.215820 
	C838.675171,567.217957 838.564880,568.094238 836.267517,568.043884 
	C830.139648,567.909424 824.006958,567.998047 817.180054,567.998047 
	C820.661133,558.227905 824.024719,548.787476 827.903625,537.900818 
	C831.347046,547.681213 834.379883,556.295288 837.662903,565.215820 
z"/>
<path fill="#4C6971" opacity="1.000000" stroke="none" 
	d="
M1960.278320,556.635132 
	C1961.425781,559.566162 1962.198486,562.230347 1963.364014,564.709900 
	C1964.476440,567.076416 1964.128662,568.046997 1961.388184,568.016785 
	C1955.413208,567.950806 1949.437134,567.996399 1942.968994,567.996399 
	C1946.538086,557.955872 1949.975708,548.285522 1953.599487,538.091125 
	C1955.931641,544.418030 1958.575806,550.138428 1960.278320,556.635132 
z"/>
<path fill="#4C6971" opacity="1.000000" stroke="none" 
	d="
M960.965576,533.000000 
	C964.026855,533.331116 966.600647,533.085022 969.254639,533.530579 
	C975.549072,534.587219 977.519775,540.815857 977.000488,545.836304 
	C976.518799,550.493835 972.425110,554.335083 967.184631,554.981873 
	C966.856873,555.022339 966.520081,554.982849 966.188477,555.000183 
	C953.000000,555.690491 953.000000,555.690796 953.000000,542.611450 
	C953.000000,541.946777 953.000000,541.282166 953.000000,540.617493 
	C953.000122,533.000916 953.000122,533.000916 960.965576,533.000000 
z"/>
<path fill="#FFFFFF" opacity="1.000000" stroke="none" 
	d="
M278.050049,269.991455 
	C293.093689,257.511444 318.696869,258.447388 333.541718,269.813995 
	C345.723755,279.141693 351.640717,291.518433 351.758850,306.036163 
	C351.929993,327.062164 338.904144,346.472137 315.386414,351.044647 
	C298.473206,354.333069 283.714020,350.330658 272.124023,337.482086 
	C257.249695,320.992493 255.704773,297.791504 268.966675,279.452759 
	C271.514496,275.929565 274.494873,272.921204 278.050049,269.991455 
z"/>
<path fill="#FFFFFF" opacity="1.000000" stroke="none" 
	d="
M349.375336,121.844704 
	C352.778351,134.027603 352.727692,145.724640 346.988190,156.842834 
	C338.528931,173.229523 325.185791,181.744843 306.473328,182.075775 
	C288.262146,182.397858 274.558777,174.379044 265.940887,159.091949 
	C256.829285,142.929047 257.653778,125.169075 269.142517,109.377655 
	C279.963043,94.504700 295.347595,88.794357 312.732849,91.353050 
	C330.234955,93.928940 343.194397,103.986076 349.375336,121.844704 
z"/>
<path fill="#FFFFFF" opacity="1.000000" stroke="none" 
	d="
M120.000000,375.000000 
	C112.518242,374.999969 105.536453,375.012390 98.554733,374.996613 
	C91.058357,374.979645 86.089561,370.702209 86.000122,364.221497 
	C85.884018,355.808960 90.108841,351.088226 98.271957,351.035278 
	C115.725616,350.922058 133.180862,350.937927 150.634766,351.029724 
	C158.187057,351.069458 164.423157,356.764435 163.933914,363.232910 
	C163.403046,370.251923 157.938705,375.306671 150.419525,375.075500 
	C140.454987,374.769135 130.473953,375.000000 120.000000,375.000000 
z"/>
<path fill="#FFFFFF" opacity="1.000000" stroke="none" 
	d="
M121.000000,305.000000 
	C113.518242,304.999969 106.536438,305.015381 99.554733,304.996124 
	C90.581421,304.971405 86.010094,300.764954 86.000053,292.562805 
	C85.990974,285.144196 90.735756,281.003174 99.266510,281.001160 
	C116.222206,280.997192 133.181870,281.216675 150.131866,280.906219 
	C158.286270,280.756866 163.600220,286.120636 163.922592,292.976562 
	C164.239227,299.710510 157.930634,304.955505 149.925735,304.990234 
	C140.450653,305.031372 130.975266,304.999969 121.000000,305.000000 
z"/>
<path fill="#FFFFFF" opacity="1.000000" stroke="none" 
	d="
M501.993652,305.000000 
	C488.172180,304.999969 474.839935,304.698090 461.530426,305.117432 
	C453.995117,305.354828 447.937286,298.983612 447.989563,293.163666 
	C448.038757,287.684906 452.006958,280.850128 461.458527,280.948151 
	C478.942719,281.129486 496.430145,280.980804 513.916199,281.009552 
	C520.958130,281.021149 525.852722,285.694824 525.999756,292.420044 
	C526.150452,299.311981 521.395264,304.605896 514.480957,304.959991 
	C510.494568,305.164124 506.489227,304.998932 501.993652,305.000000 
z"/>
<path fill="#FFFFFF" opacity="1.000000" stroke="none" 
	d="
M498.999207,375.000000 
	C486.009888,374.999969 473.520325,375.019928 461.030914,374.991089 
	C455.175690,374.977600 450.808136,372.261658 449.017670,367.646759 
	C446.872955,362.118744 448.050903,358.126984 452.795288,353.645050 
	C455.170898,351.400818 458.159271,351.115631 460.956665,351.087769 
	C478.273712,350.915131 495.595245,350.845947 512.911438,351.057007 
	C523.915100,351.191132 529.381226,360.779480 524.010620,369.952789 
	C521.987183,373.409088 518.699341,374.787354 514.983704,374.944580 
	C509.830597,375.162628 504.661346,374.999756 498.999207,375.000000 
z"/>
<path fill="#4C6971" opacity="1.000000" stroke="none" 
	d="
M310.728210,285.002472 
	C327.346771,289.469421 333.579926,308.125946 322.247009,321.174347 
	C316.200134,328.136566 306.495850,330.313690 298.770386,327.343964 
	C289.579224,323.810822 284.037842,314.966705 283.770966,305.823303 
	C283.362671,291.833740 294.614441,283.803711 305.044769,284.042389 
	C306.805664,284.082642 308.554108,284.666046 310.728210,285.002472 
z"/>
<path fill="#4C6971" opacity="1.000000" stroke="none" 
	d="
M317.792786,116.950615 
	C332.720673,126.987267 329.571350,144.979080 320.701630,152.769165 
	C313.733185,158.889389 305.745789,160.740875 297.192169,156.876831 
	C290.672150,153.931458 284.614471,146.702118 283.795990,137.218231 
	C282.092590,117.480904 302.858704,109.142349 317.792786,116.950615 
z"/>
</svg>